<svg version="1.1" viewBox="0.0 0.0 581.7191601049868 137.23359580052494" fill="none" stroke="none" stroke-linecap="square" stroke-miterlimit="10" xmlns:xlink="http://www.w3.org/1999/xlink" xmlns="http://www.w3.org/2000/svg"><clipPath id="p.0"><path d="m0 0l581.7192 0l0 137.2336l-581.7192 0l0 -137.2336z" clip-rule="nonzero"/></clipPath><g clip-path="url(#p.0)"><path fill="#000000" fill-opacity="0.0" d="m0 0l581.7192 0l0 137.2336l-581.7192 0z" fill-rule="evenodd"/><path fill="#ffffff" d="m3.5301862 2.9934382l214.96063 0l0 108.15748l-214.96063 0z" fill-rule="evenodd"/><path stroke="#000000" stroke-width="3.0" stroke-linejoin="round" stroke-linecap="butt" d="m3.5301862 2.9934382l214.96063 0l0 108.15748l-214.96063 0z" fill-rule="evenodd"/><path fill="#ffffff" d="m27.530186 26.993439l214.96063 0l0 108.157486l-214.96063 0z" fill-rule="evenodd"/><path stroke="#000000" stroke-width="3.0" stroke-linejoin="round" stroke-linecap="butt" d="m27.530186 26.993439l214.96063 0l0 108.157486l-214.96063 0z" fill-rule="evenodd"/><path fill="#000000" fill-opacity="0.0" d="m36.057743 29.355642l222.4252 0l0 103.43307l-222.4252 0z" fill-rule="evenodd"/><path fill="#000000" d="m63.495243 104.91564q-1.25 0 -2.21875 -0.765625q-0.96875 -0.765625 -1.375 -2.078125l-13.9375 -46.3125q-0.703125 -2.28125 0.09375 -3.625q0.796875 -1.359375 2.609375 -1.359375q1.171875 0 2.140625 0.65625q0.96875 0.65625 1.390625 2.046875l12.124996 42.28125l-1.5156212 0l11.234371 -41.875q0.265625 -1.03125 1.234375 -1.71875q0.984375 -0.703125 2.234375 -0.703125q1.109375 0 2.109375 0.59375q1.0 0.59375 1.28125 1.765625l11.296875 41.9375l-1.390625 0l12.203125 -42.625q0.703125 -2.359375 3.546875 -2.359375q1.9375 0 2.484375 1.484375q0.5625 1.484375 0 3.5l-13.921875 46.25q-0.5 1.3125 -1.4375 2.109375q-0.921875 0.796875 -2.171875 0.796875q-1.328125 0 -2.265625 -0.828125q-0.921875 -0.828125 -1.34375 -2.015625l-11.15625 -43.125l1.65625 0l-11.296875 43.0625q-0.484375 1.3125 -1.421875 2.109375q-0.9375 0.796875 -2.1874962 0.796875zm62.403057 0.28125q-5.625 0 -9.921875 -2.453125q-4.296875 -2.46875 -6.765625 -6.796875q-2.453125 -4.34375 -2.453125 -9.953125q0 -5.6875 2.453125 -10.015625q2.46875 -4.34375 6.765625 -6.796875q4.296875 -2.46875 9.921875 -2.46875q5.546875 0 9.84375 2.46875q4.296875 2.453125 6.75 6.796875q2.46875 4.328125 2.46875 10.015625q0 5.609375 -2.4375 9.953125q-2.421875 4.328125 -6.71875 6.796875q-4.296875 2.453125 -9.90625 2.453125zm0 -6.25q3.59375 0 6.359375 -1.65625q2.78125 -1.671875 4.34375 -4.578125q1.5625 -2.90625 1.5625 -6.71875q0 -3.8125 -1.5625 -6.75q-1.5625 -2.953125 -4.34375 -4.609375q-2.765625 -1.671875 -6.359375 -1.671875q-3.609375 0 -6.390625 1.671875q-2.765625 1.65625 -4.359375 4.609375q-1.59375 2.9375 -1.59375 6.75q0 3.8125 1.59375 6.71875q1.59375 2.90625 4.359375 4.578125q2.78125 1.65625 6.390625 1.65625zm32.999573 -17.734375q0 -4.171875 2.046875 -7.453125q2.046875 -3.296875 5.5 -5.234375q3.46875 -1.953125 7.625 -1.953125q4.171875 0 6.203125 1.359375q2.046875 1.34375 1.5625 3.21875q-0.203125 0.96875 -0.796875 1.5q-0.578125 0.515625 -1.34375 0.65625q-0.765625 0.140625 -1.671875 -0.078125q-4.4375 -0.890625 -7.96875 -0.125q-3.53125 0.75 -5.578125 2.828125q-2.046875 2.078125 -2.046875 5.28125l-3.53125 0zm0.0625 23.703125q-1.65625 0 -2.5625 -0.859375q-0.90625 -0.875 -0.90625 -2.609375l0 -30.984375q0 -1.671875 0.90625 -2.5625q0.90625 -0.90625 2.5625 -0.90625q1.734375 0 2.59375 0.875q0.875 0.859375 0.875 2.59375l0 30.984375q0 1.671875 -0.875 2.578125q-0.859375 0.890625 -2.59375 0.890625zm44.65448 0.28125q-5.40625 0 -9.75 -2.53125q-4.328125 -2.53125 -6.859375 -6.890625q-2.53125 -4.375 -2.53125 -9.859375q0 -5.46875 2.3125 -9.796875q2.328125 -4.34375 6.34375 -6.875q4.03125 -2.53125 9.09375 -2.53125q4.09375 0 7.546875 1.703125q3.46875 1.703125 5.828125 4.609375l0 -18.71875q0 -1.59375 1.0 -2.5625q1.015625 -0.96875 2.546875 -0.96875q1.59375 0 2.5625 0.96875q0.96875 0.96875 0.96875 2.5625l0 31.609375q0 5.484375 -2.53125 9.859375q-2.53125 4.359375 -6.828125 6.890625q-4.296875 2.53125 -9.703125 2.53125zm0 -6.25q3.53125 0 6.296875 -1.6875q2.78125 -1.703125 4.375 -4.6875q1.59375 -2.984375 1.59375 -6.65625q0 -3.734375 -1.59375 -6.640625q-1.59375 -2.921875 -4.375 -4.609375q-2.765625 -1.703125 -6.296875 -1.703125q-3.46875 0 -6.28125 1.703125q-2.8125 1.6875 -4.4375 4.609375q-1.625 2.90625 -1.625 6.640625q0 3.671875 1.625 6.65625q1.625 2.984375 4.4375 4.6875q2.8125 1.6875 6.28125 1.6875z" fill-rule="nonzero"/><path fill="#000000" fill-opacity="0.0" d="m242.49081 29.355642l314.9606 0l0 103.43307l-314.9606 0z" fill-rule="evenodd"/><path fill="#ffffff" d="m262.02206 104.91564q-1.453125 0 -2.53125 -1.03125q-1.0625 -1.046875 -1.0625 -2.578125l0 -46.9375q0 -1.515625 1.0625 -2.546875q1.078125 -1.046875 2.53125 -1.046875q1.53125 0 2.5625 1.046875q1.046875 1.03125 1.046875 2.546875l0 20.8125l22.953125 -22.953125q0.828125 -0.828125 1.515625 -1.140625q0.703125 -0.3125 1.46875 -0.3125q1.734375 0 2.484375 1.046875q0.765625 1.03125 0.5625 2.453125q-0.203125 1.421875 -1.3125 2.59375l-17.6875 17.75l18.03125 24.546875q0.828125 1.171875 0.6875 2.53125q-0.140625 1.34375 -0.96875 2.28125q-0.828125 0.9375 -2.21875 0.9375q-1.9375 0 -2.984375 -1.53125l-17.53125 -23.78125l-5.0 5.0l0 16.703125q0 1.53125 -1.046875 2.578125q-1.03125 1.03125 -2.5625 1.03125zm53.597443 0.28125q-5.0625 0 -9.09375 -2.53125q-4.015625 -2.53125 -6.34375 -6.859375q-2.3125 -4.34375 -2.3125 -9.8125q0 -5.484375 2.53125 -9.84375q2.53125 -4.375 6.859375 -6.90625q4.34375 -2.53125 9.75 -2.53125q5.40625 0 9.703125 2.53125q4.296875 2.53125 6.828125 6.90625q2.53125 4.359375 2.53125 9.84375l-2.703125 0q0 5.46875 -2.328125 9.8125q-2.3125 4.328125 -6.34375 6.859375q-4.015625 2.53125 -9.078125 2.53125zm1.390625 -6.25q3.53125 0 6.296875 -1.6875q2.78125 -1.703125 4.375 -4.640625q1.59375 -2.953125 1.59375 -6.625q0 -3.75 -1.59375 -6.6875q-1.59375 -2.953125 -4.375 -4.640625q-2.765625 -1.703125 -6.296875 -1.703125q-3.46875 0 -6.28125 1.703125q-2.8125 1.6875 -4.4375 4.640625q-1.625 2.9375 -1.625 6.6875q0 3.671875 1.625 6.625q1.625 2.9375 4.4375 4.640625q2.8125 1.6875 6.28125 1.6875zm15.53125 6.03125q-1.53125 0 -2.546875 -1.0q-1.0 -1.0 -1.0 -2.53125l0 -10.609375l1.328125 -7.34375l5.75 2.5l0 15.453125q0 1.53125 -1.015625 2.53125q-1.0 1.0 -2.515625 1.0zm31.265198 0.21875q-5.546875 0 -9.890625 -2.53125q-4.328125 -2.53125 -6.796875 -6.859375q-2.453125 -4.34375 -2.453125 -9.8125q0 -5.625 2.421875 -9.984375q2.4375 -4.375 6.65625 -6.828125q4.234375 -2.46875 9.71875 -2.46875q4.078125 0 7.46875 1.5625q3.40625 1.5625 6.109375 4.6875q0.96875 1.109375 0.6875 2.28125q-0.265625 1.171875 -1.515625 2.078125q-0.96875 0.6875 -2.15625 0.453125q-1.171875 -0.25 -2.140625 -1.21875q-3.40625 -3.59375 -8.453125 -3.59375q-3.546875 0 -6.25 1.625q-2.703125 1.625 -4.234375 4.546875q-1.515625 2.90625 -1.515625 6.859375q0 3.734375 1.5625 6.65625q1.5625 2.90625 4.328125 4.609375q2.78125 1.6875 6.453125 1.6875q2.421875 0 4.25 -0.578125q1.84375 -0.59375 3.375 -1.84375q1.109375 -0.90625 2.28125 -1.0q1.1875 -0.109375 2.078125 0.65625q1.1875 0.96875 1.3125 2.1875q0.140625 1.203125 -0.828125 2.171875q-4.984375 4.65625 -12.46875 4.65625zm28.009918 -14.078125q-1.53125 0 -2.546875 -1.0q-1.0 -1.015625 -1.0 -2.53125l0 -33.28125q0 -1.59375 1.0 -2.5625q1.015625 -0.96875 2.546875 -0.96875q1.59375 0 2.5625 0.96875q0.96875 0.96875 0.96875 2.5625l0 33.28125q0 1.515625 -0.96875 2.53125q-0.96875 1.0 -2.5625 1.0zm28.484375 13.859375q-1.515625 0 -2.53125 -1.0q-1.0 -1.0 -1.0 -2.53125l0 -17.046875q0 -3.953125 -1.453125 -6.453125q-1.453125 -2.5 -3.921875 -3.703125q-2.453125 -1.21875 -5.65625 -1.21875q-2.90625 0 -5.265625 1.1875q-2.359375 1.171875 -3.75 3.15625q-1.375 1.96875 -1.375 4.53125l-4.375 0q0 -4.375 2.109375 -7.796875q2.125 -3.4375 5.796875 -5.4375q3.671875 -2.015625 8.25 -2.015625q4.78125 0 8.5625 2.046875q3.78125 2.046875 5.96875 6.0q2.1875 3.9375 2.1875 9.703125l0 17.046875q0 1.53125 -1.015625 2.53125q-1.0 1.0 -2.53125 1.0zm-28.484375 0q-1.53125 0 -2.546875 -1.0q-1.0 -1.0 -1.0 -2.53125l0 -30.921875q0 -1.59375 1.0 -2.5625q1.015625 -0.96875 2.546875 -0.96875q1.59375 0 2.5625 0.96875q0.96875 0.96875 0.96875 2.5625l0 30.921875q0 1.53125 -0.96875 2.53125q-0.96875 1.0 -2.5625 1.0zm61.632324 0.21875q-5.765625 0 -10.234375 -2.453125q-4.46875 -2.46875 -7.0 -6.796875q-2.53125 -4.34375 -2.53125 -9.953125q0 -5.6875 2.390625 -10.015625q2.390625 -4.34375 6.625 -6.796875q4.234375 -2.46875 9.703125 -2.46875q5.40625 0 9.28125 2.390625q3.890625 2.390625 5.9375 6.59375q2.046875 4.1875 2.046875 9.671875q0 1.3125 -0.90625 2.1875q-0.890625 0.859375 -2.28125 0.859375l-27.9375 0l0 -5.546875l27.71875 0l-2.828125 1.9375q-0.078125 -3.46875 -1.390625 -6.203125q-1.3125 -2.734375 -3.75 -4.328125q-2.421875 -1.59375 -5.890625 -1.59375q-3.953125 0 -6.765625 1.734375q-2.796875 1.734375 -4.265625 4.75q-1.453125 3.015625 -1.453125 6.828125q0 3.8125 1.734375 6.796875q1.734375 2.96875 4.78125 4.703125q3.0625 1.734375 7.015625 1.734375q2.140625 0 4.390625 -0.796875q2.265625 -0.796875 3.640625 -1.828125q1.046875 -0.765625 2.25 -0.796875q1.21875 -0.046875 2.125 0.71875q1.171875 1.046875 1.234375 2.296875q0.078125 1.234375 -1.09375 2.140625q-2.359375 1.875 -5.859375 3.0625q-3.5 1.171875 -6.6875 1.171875z" fill-rule="nonzero"/><path fill="#000000" fill-opacity="0.0" d="m475.23883 9.552493l314.96063 0l0 67.874016l-314.96063 0z" fill-rule="evenodd"/><path fill="#ffffff" d="m485.5357 34.29624l-0.125 -5.046875q0 -0.625 0.421875 -0.96875q0.4375 -0.359375 1.0625 -0.359375q0.625 0 1.125 0.34375q0.515625 0.328125 0.40625 0.90625l0.265625 16.875q2.46875 -3.28125 6.640625 -5.5q3.484375 -1.875 6.09375 -1.875q2.3125 0 3.5625 1.484375q0.9375 1.171875 0.9375 3.109375q0 1.921875 -0.734375 3.359375q-0.71875 1.421875 -1.890625 2.734375q-1.171875 1.296875 -2.703125 2.4375q-1.515625 1.125 -3.078125 2.03125q-2.96875 1.71875 -5.859375 2.84375q-0.234375 -0.078125 -0.78125 -0.03125q-0.546875 0.03125 -1.328125 0.03125q-2.109375 0 -3.703125 -0.5q-0.390625 -3.71875 -0.390625 -11.296875l0.078125 -10.578125zm3.28125 19.171875q0 0.4375 0.796875 0.4375q0.796875 0 1.96875 -0.3125q1.171875 -0.3125 2.828125 -1.078125q1.671875 -0.765625 3.34375 -1.96875q3.90625 -2.78125 5.90625 -6.53125q-0.515625 -2.21875 -3.046875 -2.21875q-2.3125 0 -5.203125 1.71875q-4.09375 2.453125 -5.859375 6.09375q-0.734375 1.4375 -0.734375 2.921875q0 0.390625 0 0.625q0 0.234375 0 0.3125zm26.914062 0.75q3.4375 0 10.34375 -3.125q0.4375 0 0.703125 0.296875q0.28125 0.28125 0.28125 0.671875q-1.5625 2.65625 -5.984375 4.15625q-4.40625 1.484375 -8.234375 0.5q-4.34375 -1.140625 -5.28125 -4.890625q-0.078125 -0.734375 -0.078125 -1.984375q0 -1.25 0.640625 -3.296875q0.65625 -2.0625 2.21875 -3.890625q1.5625 -1.84375 3.671875 -2.890625q2.109375 -1.0625 4.484375 -1.0625q2.265625 0 5.078125 1.5625q1.328125 0.75 2.109375 1.6875q0.78125 0.9375 0.78125 1.90625q0 0.28125 -0.03125 0.546875q-0.078125 2.390625 -2.3125 3.015625q-0.96875 0.265625 -2.265625 0.265625l-5.625 -0.234375q-2.8125 0 -4.296875 1.21875q-0.859375 0.65625 -1.203125 1.984375q0.96875 3.5625 5.0 3.5625zm6.96875 -12.078125q-0.875 -0.625 -1.8125 -0.890625q-0.9375 -0.28125 -1.5625 -0.28125q-0.625 0 -2.03125 0.421875q-1.40625 0.40625 -2.5 0.90625q-2.703125 1.25 -2.703125 2.625q3.125 0.265625 4.6875 0.265625q4.34375 0 5.859375 -0.734375q0.9375 -0.390625 0.9375 -0.984375q0 -0.703125 -0.875 -1.328125zm12.59375 11.0625l0.078125 -6.25q0 -1.484375 -0.265625 -2.546875l-6.0625 0l-0.078125 -2.6875l5.859375 0l0 -10.078125q0.125 -0.359375 0.46875 -0.703125q0.546875 -0.546875 0.921875 -0.546875q0.375 0 0.640625 0.078125q0.28125 0.078125 0.59375 0.546875q0.625 2.578125 0.625 7.765625q0 1.296875 0.109375 2.546875q1.25 -0.15625 2.5 -0.15625q0 0 2.03125 0q0.75 0 1.375 -0.078125l-0.125 2.8125l-5.703125 -0.15625l0.203125 13.484375q-0.703125 0.3125 -1.21875 0.3125q-1.953125 0 -1.953125 -4.34375zm25.625 -2.734375q-2.921875 4.609375 -7.8125 5.703125q-1.125 0.234375 -2.046875 0.234375q-0.921875 0 -1.53125 -0.015625q-0.59375 -0.03125 -1.34375 -0.1875q-0.734375 -0.15625 -1.359375 -0.5q-1.453125 -0.828125 -1.453125 -2.3125q-0.15625 -0.703125 -0.15625 -1.578125q0 -0.875 0.390625 -2.3125q0.390625 -1.453125 1.421875 -3.125q1.046875 -1.6875 2.53125 -3.09375q3.078125 -2.96875 6.671875 -3.828125q1.0625 -0.234375 1.9375 -0.234375q0.875 0 1.578125 0.109375q2.265625 0 3.046875 3.09375q0.515625 1.953125 0.609375 5.453125q0.09375 3.484375 0.1875 5.390625q0.109375 1.890625 0.5 3.453125l-2.3125 0q-0.15625 -1.0625 -0.234375 -1.875q-0.078125 -0.828125 -0.15625 -1.53125q-0.1875 -1.640625 -0.46875 -2.84375zm-0.15625 -6.0625q0 -2.265625 -2.21875 -2.265625q-0.28125 -0.03125 -0.546875 -0.03125q-2.859375 0 -6.015625 2.734375q-1.484375 1.25 -2.546875 2.8125q-1.5625 2.21875 -1.5625 3.984375q0 2.296875 2.65625 2.734375q3.515625 -0.078125 6.71875 -3.203125q1.375 -1.375 2.265625 -2.96875q1.25 -2.15625 1.25 -3.796875z" fill-rule="nonzero"/></g></svg>