<svg version="1.1" viewBox="0.0 0.0 748.3989501312336 184.53805774278214" fill="none" stroke="none" stroke-linecap="square" stroke-miterlimit="10" xmlns:xlink="http://www.w3.org/1999/xlink" xmlns="http://www.w3.org/2000/svg"><clipPath id="p.0"><path d="m0 0l748.3989 0l0 184.53806l-748.3989 0l0 -184.53806z" clip-rule="nonzero"/></clipPath><g clip-path="url(#p.0)"><path fill="#000000" fill-opacity="0.0" d="m0 0l748.3989 0l0 184.53806l-748.3989 0z" fill-rule="evenodd"/><path fill="#000000" fill-opacity="0.0" d="m32.5319 28.367672l356.7874 0l0 154.11023l-356.7874 0z" fill-rule="evenodd"/><path stroke="#ffffff" stroke-width="4.0" stroke-linejoin="round" stroke-linecap="butt" d="m32.5319 28.367672l356.7874 0l0 154.11023l-356.7874 0z" fill-rule="evenodd"/><path fill="#000000" fill-opacity="0.0" d="m37.493584 26.681871l346.89764 0l0 155.11812l-346.89764 0z" fill-rule="evenodd"/><path fill="#ffffff" d="m84.723305 143.20187l-26.21875 -78.40626l11.546875 0l24.078125 72.35938l-5.828125 0l24.984375 -72.35938l10.296875 0l24.421883 72.35938l-5.609375 0l24.421875 -72.35938l10.640625 0l-26.21875 78.40626l-11.75 0l-22.843758 -67.09376l3.015625 0l-22.953125 67.09376l-11.984375 0zm125.76449 0.671875q-8.953125 0 -15.90625 -3.921875q-6.9375 -3.921875 -10.96875 -10.796875q-4.03125 -6.8906326 -4.03125 -15.640633q0 -8.84375 4.03125 -15.671875q4.03125 -6.828125 10.96875 -10.6875q6.953125 -3.875 15.90625 -3.875q8.859375 0 15.859375 3.875q7.0 3.859375 10.96875 10.640625q3.984375 6.765625 3.984375 15.71875q0 8.859375 -3.984375 15.687508q-3.96875 6.828125 -10.96875 10.75q-7.0 3.921875 -15.859375 3.921875zm0 -9.40625q5.71875 0 10.25 -2.578125q4.546875 -2.578125 7.109375 -7.3281326q2.578125 -4.765625 2.578125 -11.046875q0 -6.375 -2.578125 -11.015625q-2.5625 -4.65625 -7.109375 -7.234375q-4.53125 -2.578125 -10.25 -2.578125q-5.703125 0 -10.1875 2.578125q-4.484375 2.578125 -7.171875 7.234375q-2.6875 4.640625 -2.6875 11.015625q0 6.28125 2.6875 11.046875q2.6875 4.7500076 7.171875 7.3281326q4.484375 2.578125 10.1875 2.578125zm45.69812 8.734375l0 -59.359383l10.3125 0l0 16.125l-1.015625 -4.03125q2.46875 -6.15625 8.28125 -9.40625q5.828125 -3.25 14.34375 -3.25l0 10.421875q-0.671875 -0.109375 -1.296875 -0.109375q-0.609375 0 -1.171875 0q-8.609375 0 -13.65625 5.15625q-5.046875 5.140625 -5.046875 14.890625l0 29.562508l-10.75 0zm69.10724 0.671875q-8.625 0 -15.40625 -3.796875q-6.765625 -3.8125 -10.6875 -10.640625q-3.921875 -6.8437576 -3.921875 -15.921883q0 -9.0625 3.921875 -15.828125q3.921875 -6.78125 10.6875 -10.59375q6.78125 -3.8125 15.40625 -3.8125q7.5 0 13.546875 3.359375q6.046875 3.359375 9.6875 10.078125q3.640625 6.71875 3.640625 16.796875q0 10.09375 -3.53125 16.812508q-3.515625 6.71875 -9.5625 10.140625q-6.046875 3.40625 -13.78125 3.40625zm0.890625 -9.40625q5.609375 0 10.140625 -2.578125q4.53125 -2.578125 7.15625 -7.3281326q2.640625 -4.765625 2.640625 -11.046875q0 -6.375 -2.640625 -11.015625q-2.625 -4.65625 -7.15625 -7.234375q-4.53125 -2.578125 -10.140625 -2.578125q-5.703125 0 -10.1875 2.578125q-4.484375 2.578125 -7.171875 7.234375q-2.6875 4.640625 -2.6875 11.015625q0 6.28125 2.6875 11.046875q2.6875 4.7500076 7.171875 7.3281326q4.484375 2.578125 10.1875 2.578125zm20.28125 8.734375l0 -16.015633l0.671875 -13.78125l-1.125 -13.765625l0 -39.546875l10.75 0l0 83.10938l-10.296875 0z" fill-rule="nonzero"/><path fill="#000000" fill-opacity="0.0" d="m389.3415 26.681871l491.2126 0l0 155.11812l-491.2126 0z" fill-rule="evenodd"/><path fill="#ffffff" d="m419.95087 124.27999l-0.546875 -13.671875l44.453125 -45.8125l12.765625 0l-34.375 36.296875l-6.28125 6.9375l-16.015625 16.25zm-9.84375 18.921883l0 -78.40626l11.1875 0l0 78.40626l-11.1875 0zm55.546875 0l-32.140625 -37.406258l7.5 -8.296875l37.75 45.703133l-13.109375 0zm58.806335 0l0 -12.546875l-0.5625 -2.34375l0 -21.390633q0 -6.84375 -3.984375 -10.59375q-3.96875 -3.75 -11.9218445 -3.75q-5.265625 0 -10.3125 1.734375q-5.03125 1.734375 -8.5 4.65625l-4.484375 -8.0625q4.59375 -3.703125 11.03125 -5.65625q6.4375 -1.96875 13.5 -1.96875q12.2030945 0 18.81247 5.9375q6.609375 5.9375 6.609375 18.140625l0 35.843758l-10.1875 0zm-19.49997 0.671875q-6.609375 0 -11.59375 -2.234375q-4.984375 -2.25 -7.671875 -6.21875q-2.6875 -3.984375 -2.6875 -9.015633q0 -4.8125 2.296875 -8.734375q2.296875 -3.921875 7.5 -6.265625q5.21875 -2.359375 14.0625 -2.359375l18.81247 0l0 7.71875l-18.359344 0q-8.0625 0 -10.875 2.6875q-2.796875 2.6875 -2.796875 6.5q0 4.3750076 3.46875 7.0156326q3.484375 2.625 9.640625 2.625q6.0468445 0 10.5780945 -2.6875q4.546875 -2.6875 6.5625 -7.8437576l2.125 7.3906326q-2.125 5.265625 -7.5 8.34375q-5.375 3.078125 -13.5624695 3.078125zm75.49161 0q-9.078125 0 -16.1875 -3.921875q-7.109375 -3.921875 -11.140625 -10.75q-4.03125 -6.8281326 -4.03125 -15.687508q0 -8.84375 4.03125 -15.671875q4.03125 -6.828125 11.140625 -10.6875q7.109375 -3.875 16.1875 -3.875q8.0625 0 14.390625 3.203125q6.328125 3.1875 9.796875 9.453125l-8.171875 5.265625q-2.90625 -4.375 -7.109375 -6.4375q-4.203125 -2.078125 -9.015625 -2.078125q-5.828125 0 -10.421875 2.578125q-4.59375 2.578125 -7.28125 7.234375q-2.6875 4.640625 -2.6875 11.015625q0 6.390625 2.6875 11.09375q2.6875 4.7031326 7.28125 7.2812576q4.59375 2.578125 10.421875 2.578125q4.8125 0 9.015625 -2.0625q4.203125 -2.078125 7.109375 -6.4531326l8.171875 5.1562576q-3.46875 6.15625 -9.796875 9.46875q-6.328125 3.296875 -14.390625 3.296875zm68.99609 -60.593758q7.28125 0 12.8125 2.8125q5.546875 2.796875 8.6875 8.515625q3.140625 5.703125 3.140625 14.4375l0 34.156258l-10.75 0l0 -32.921883q0 -8.625 -4.203125 -12.984375q-4.203125 -4.375 -11.8125 -4.375q-5.71875 0 -9.984375 2.234375q-4.25 2.234375 -6.546875 6.609375q-2.296875 4.359375 -2.296875 10.859375l0 30.578133l-10.75 0l0 -83.10938l10.75 0l0 39.765625l-2.125 -4.25q2.921875 -5.828125 8.96875 -9.078125q6.046875 -3.25 14.109375 -3.25zm71.00641 60.593758q-9.515625 0 -16.75 -3.921875q-7.21875 -3.921875 -11.203125 -10.75q-3.96875 -6.8281326 -3.96875 -15.687508q0 -8.84375 3.859375 -15.671875q3.875 -6.828125 10.640625 -10.6875q6.78125 -3.875 15.296875 -3.875q8.625 0 15.234375 3.8125q6.609375 3.8125 10.359375 10.703125q3.75 6.875 3.75 16.0625q0 0.671875 -0.0625 1.578125q-0.046875 0.890625 -0.171875 1.671875l-50.5 0l0 -7.734375l44.90625 0l-4.375 2.6875q0.125 -5.703125 -2.34375 -10.1875q-2.46875 -4.484375 -6.78125 -7.0q-4.3125 -2.515625 -10.015625 -2.515625q-5.609375 0 -9.984375 2.515625q-4.359375 2.515625 -6.828125 7.0625q-2.453125 4.53125 -2.453125 10.359375l0 1.78125q0 5.9375 2.734375 10.59375q2.75 4.6406326 7.671875 7.2187576q4.9375 2.578125 11.3125 2.578125q5.265625 0 9.578125 -1.78125q4.3125 -1.796875 7.5625 -5.3906326l5.9375 6.9531326q-4.03125 4.703125 -10.03125 7.171875q-5.984375 2.453125 -13.375 2.453125z" fill-rule="nonzero"/><path fill="#000000" fill-opacity="0.0" d="m1.992126 157.65092l0 -153.76378" fill-rule="evenodd"/><path stroke="#ffffff" stroke-width="4.0" stroke-linejoin="round" stroke-linecap="butt" d="m1.992126 157.65092l0 -153.76378" fill-rule="evenodd"/><path fill="#000000" fill-opacity="0.0" d="m3.9908137 2.0246062l349.5118 0" fill-rule="evenodd"/><path stroke="#ffffff" stroke-width="4.0" stroke-linejoin="round" stroke-linecap="butt" d="m3.9908137 2.0246062l349.5118 0" fill-rule="evenodd"/><path fill="#ffffff" d="m3.968504 7.937008l0 0c-2.1917443 0 -3.968504 -1.7767596 -3.968504 -3.968504c0 -2.1917443 1.7767597 -3.968504 3.968504 -3.968504c2.1917443 0 3.968504 1.7767597 3.968504 3.968504l-3.968504 0z" fill-rule="evenodd"/></g></svg>